<svg version="1.1" xmlns="http://www.w3.org/2000/svg" xmlns:xlink="http://www.w3.org/1999/xlink" width="174.94357" height="71.91133" viewBox="0,0,174.94357,71.91133"><defs><linearGradient x1="76.69677" y1="-16.95846" x2="74.19621" y2="-38.0725" gradientUnits="userSpaceOnUse" id="color-1"><stop offset="0" stop-color="#ee2a7b"/><stop offset="1" stop-color="#811150"/></linearGradient><linearGradient x1="413.03094" y1="425.52887" x2="415.31621" y2="446.6673" gradientUnits="userSpaceOnUse" id="color-2"><stop offset="0" stop-color="#ee2a7b"/><stop offset="1" stop-color="#811150"/></linearGradient><linearGradient x1="112.33066" y1="396.1818" x2="112.33066" y2="418.62212" gradientUnits="userSpaceOnUse" id="color-3"><stop offset="0" stop-color="#ee2a7b"/><stop offset="1" stop-color="#811150"/></linearGradient><linearGradient x1="392.78596" y1="387.00278" x2="394.71549" y2="409.35999" gradientUnits="userSpaceOnUse" id="color-4"><stop offset="0" stop-color="#ee2a7b"/><stop offset="1" stop-color="#811150"/></linearGradient></defs><g transform="translate(-155.99568,-155.00282)"><g data-paper-data="{&quot;isPaintingLayer&quot;:true}" fill="none" fill-rule="nonzero" stroke="#ffffff" stroke-width="1.15823" stroke-linecap="butt" stroke-linejoin="miter" stroke-miterlimit="10" stroke-dasharray="" stroke-dashoffset="0" font-family="none" font-weight="none" font-size="none" text-anchor="none" style="mix-blend-mode: normal"><path d="M233.36206,188.22604c0,0 25.23645,-0.54349 36.69826,-0.78826c3.00239,-0.06412 5.55852,0.9176 5.70949,2.19231c0.15099,1.27494 -2.16034,2.36019 -5.16274,2.42431c-9.60944,0.20522 -36.66873,0.78787 -36.66873,0.78787c0,0 1.90915,0.7419 10.71153,4.12159c2.22983,0.85625 2.40291,2.31766 0.3866,3.26435c-2.01741,0.94672 -5.45845,1.02044 -7.68784,0.16418c-7.13744,-2.74021 -20.48339,-7.86532 -20.48339,-7.86532c-2.22939,-0.85626 -2.40249,-2.31786 -0.3866,-3.26435c0,0 10.41416,-4.89086 18.37349,-8.62873c2.01733,-0.94737 5.45884,-1.02087 7.68784,-0.16418c2.22992,0.85606 2.40304,2.31789 0.38655,3.26393c-6.45397,3.03178 -9.56446,4.49231 -9.56446,4.49231z" data-paper-data="{&quot;origPos&quot;:null,&quot;origRot&quot;:0}" id="ID0.6278323931619525" fill="url(#color-1)"/><path d="M258.46469,218.75855c0,0 -25.24068,0.28629 -36.70438,0.41426c-3.00289,0.03352 -5.54889,-0.9742 -5.68685,-2.25038c-0.138,-1.27642 2.18428,-2.33805 5.18717,-2.37157c9.61103,-0.10728 36.67485,-0.41416 36.67485,-0.41416c0,0 -1.9015,-0.76132 -10.66897,-4.23053c-2.22099,-0.87892 -2.37916,-2.34203 -0.35332,-3.26813c2.02695,-0.92611 5.46857,-0.96476 7.68911,-0.08583c7.10915,2.8128 20.40218,8.07365 20.40218,8.07365c2.22055,0.87893 2.37874,2.34222 0.35332,3.26812c0,0 -10.46346,4.78448 -18.46047,8.44105c-2.02688,0.92676 -5.46896,0.96518 -7.68911,0.08583c-2.22108,-0.87874 -2.3793,-2.34226 -0.35327,-3.2677c6.48453,-2.96585 9.60974,-4.39462 9.60974,-4.39462z" data-paper-data="{&quot;origPos&quot;:null,&quot;origRot&quot;:0}" id="ID0.6278323931619525" fill="url(#color-2)"/><path d="M180.20407,180.30669c0.95822,0.95727 -0.15951,4.6223 -1.11772,5.58032c-1.26224,1.26342 -8.36499,11.85879 -8.36499,11.85879c-6.81155,-6.81015 -16.6361,-13.304 -13.56907,-16.37058c1.85615,-1.85663 6.2062,3.25202 8.66091,4.18301c1.12516,0.42674 -2.03882,-9.09754 -2.07893,-9.12984c-0.12032,-0.0969 -1.13529,-2.82649 0.6114,-7.84314c0.95125,-2.73206 1.84393,-4.51825 3.9377,-6.51453c0.80222,-0.76487 1.50232,-1.38537 2.51021,-1.8466c1.81398,-0.83013 3.93976,-1.70801 3.93976,-1.70801c0,0 7.76647,-0.80696 11.26382,1.75765c5.11522,3.75099 6.16653,12.97081 6.51154,13.81376c0.115,0.28098 0.20626,1.94352 0.16163,2.24945c-0.13389,0.91779 1.06132,2.38107 -0.33774,3.84161c-0.24542,0.25621 -4.54443,-0.48778 -4.76422,-0.89775c-0.65937,-1.2299 -0.11658,-14.76201 -6.52827,-14.76284c-0.21928,-0.00003 -2.49521,-0.17058 -2.71419,-0.15903c-0.18903,0.00997 0.06307,-0.18136 -0.12615,-0.18649c-0.56768,-0.01539 -2.14811,-0.12193 -3.24476,0.13745c-0.78951,0.18674 -1.24173,0.35942 -3.57574,2.53961c-0.10253,0.09577 -2.73121,5.00545 -2.73121,5.00545c0,0 0.54939,6.13889 0.55735,6.39379c0.01825,0.58456 0.17326,5.83383 2.52834,7.72453c0.31292,0.25122 5.40326,-8.73458 8.47034,-5.66661z" data-paper-data="{&quot;origPos&quot;:null}" id="ID0.6278323931619525" fill="url(#color-3)"/><path d="M315.52816,182.68055c2.18379,-2.08621 1.88686,-7.32936 1.85478,-7.91332c-0.01399,-0.25464 0.00552,-6.41804 0.00552,-6.41804c0,0 -3.04111,-4.66546 -3.15149,-4.75206c-2.51282,-1.97143 -2.97821,-2.10459 -3.78086,-2.22275c-1.11489,-0.16413 -2.68031,0.07791 -3.24457,0.14206c-0.18808,0.02138 0.07954,0.19033 -0.10965,0.19665c-0.21916,0.00732 -2.47199,0.37293 -2.69046,0.39182c-6.38787,0.55213 -4.68354,13.98746 -5.23471,15.2695c-0.18372,0.42735 -4.40284,1.53823 -4.66938,1.30407c-1.51947,-1.33484 -0.45451,-2.89547 -0.66681,-3.79835c-0.07077,-0.30096 -0.12281,-1.96519 -0.03239,-2.25502c0.27125,-0.86948 0.5259,-10.14556 5.29966,-14.32249c3.26389,-2.85583 11.07097,-2.71965 11.07097,-2.71965c0,0 2.1934,0.69185 4.07204,1.36293c1.04382,0.37286 1.79468,0.93087 2.65969,1.62393c2.25767,1.80886 3.30062,3.51167 4.48326,6.15182c2.17158,4.84788 1.39507,7.65463 1.28353,7.76152c-0.03718,0.03563 -2.37051,9.79669 -1.2862,9.27478c2.36557,-1.13862 6.26025,-6.60239 8.26916,-4.91223c3.31935,2.79151 -5.91044,10.10607 -12.1112,17.47668c0,0 -7.9875,-9.94541 -9.35369,-11.09561c-1.03705,-0.87208 -2.46576,-4.42743 -1.5934,-5.46355c2.79192,-3.32033 8.63604,5.19451 8.92621,4.91731z" data-paper-data="{&quot;origPos&quot;:null,&quot;index&quot;:null,&quot;origRot&quot;:0}" id="ID0.6278323931619525" fill="url(#color-4)"/></g></g></svg>