<svg version="1.1" xmlns="http://www.w3.org/2000/svg" xmlns:xlink="http://www.w3.org/1999/xlink" width="555.16256" height="766.89314" viewBox="0,0,555.16256,766.89314"><g transform="translate(60.99999,197.39771)"><g data-paper-data="{&quot;isPaintingLayer&quot;:true}" fill="none" fill-rule="nonzero" stroke="none" stroke-width="none" stroke-linecap="none" stroke-linejoin="miter" stroke-miterlimit="10" stroke-dasharray="" stroke-dashoffset="0" font-family="none" font-weight="none" font-size="none" text-anchor="none" style="mix-blend-mode: normal"><path d="M244,379.00001c-0.40855,4.08547 -1.02881,8.4757 -2.63932,12.40319c-0.295,0.71939 -1.21862,0.97628 -1.74189,1.55137c-2.11616,2.3257 -3.81756,5.04791 -6.16566,7.13919c-2.29628,2.04512 -5.91267,1.70038 -8.90538,2.40686c-2.99271,0.70648 -6.07314,2.63213 -9.0416,1.82985c-3.03546,-0.82039 -5.77464,-2.49432 -8.70748,-3.62811c-0.72522,-0.28036 -1.66622,-0.09707 -2.25179,-0.60859c-4.96586,-4.33784 -8.13545,-9.53795 -10.3051,-15.58196c-0.84164,-2.34458 0.32806,-6.18228 -1.93765,-7.21764c-2.51856,-1.1509 -5.45429,0.96465 -8.19415,1.36569c-5.65124,0.8272 -11.38202,2.05286 -17.10997,2.34015c-4.37036,0.2192 -8.75157,1.15544 -13.09375,1.60938c-1.30149,0.13606 -2.60186,0.28597 -3.90625,0.39063c-0.31978,0.02566 -0.91375,-0.31709 -0.96241,0c-8.41543,54.83643 -16.0779,109.786 -24.30561,164.65091c-1.21335,8.09099 -5.94752,15.30459 -13.51426,19.32738c-2.0396,1.08433 -4.60957,0.39755 -6.88205,0.81171c-2.27249,0.41416 -4.43495,1.96341 -6.72594,1.66831c-15.82985,-2.03898 -27.63172,-20.49156 -27.60973,-35.68756c0.0638,-44.07139 0.77215,-88.14964 0,-132.21431c-0.12687,-7.24029 -0.17505,-14.76749 -2.69456,-21.55644c-0.61531,-1.65799 -4.98719,-1.73961 -5.30544,0c-2.44973,13.39045 0.90022,20.98918 -0.15291,31.76079c-1.71948,17.58724 -2.32941,40.23921 -26.84709,40.23921c-4.99056,0 -10.1201,-1.43024 -14.45312,-3.90625c-6.91793,-3.9531 -10.44074,-13.57857 -10.54687,-21.09375c-0.19713,-13.95812 1.4569,-36.49237 -3.49761,-51.01255c-0.03609,-0.10576 -2.28057,-0.27626 -2.61237,-0.3276c-1.69689,-0.26253 -3.37556,-0.64848 -5.08113,-0.84686c-3.3487,-0.38949 -6.71863,-0.57149 -10.07229,-0.91566c-19.17171,-1.96753 -49.73661,-0.38474 -49.73661,-27.89733c0,-17.35002 15.42786,-27.21039 30.90625,-24.60937c5.06986,0.85195 10.86518,1.31633 16.09375,1.60938c1.11479,0.06248 3.14698,1.43249 3.33316,0.33159c0.77093,-4.55871 -1.28689,-9.94512 -1.94253,-14.42534c-0.63933,-4.36879 -0.16066,-8.6869 -0.39063,-13.12955c-0.15147,-2.92623 -0.9231,-5.8281 -1,-8.7767c-0.04345,-1.6661 -0.01932,-3.33345 0,-5c0.00771,-0.66472 0.70759,-2.1822 0.0703,-1.99306c-1.93049,0.57295 -3.62602,1.82263 -5.57644,2.32352c-0.63947,0.16422 -1.28236,-0.43391 -1.9413,-0.39288c-9.47244,0.58973 -18.58535,-4.54255 -23.91324,-12.53439c-5.52337,-8.28505 -4.42794,-18.55035 -4.63932,-28.01266c-0.10695,-4.78746 -0.99825,-21.76474 -1,-32.39053c-0.01293,-78.71423 -0.64824,-158.49677 0.00087,-237.20833c0.32987,-40.00003 0.54057,-80.00125 1,-120c0.0937,-8.15765 4.57913,-16.13012 7.04923,-23.4523c0.38081,-1.12886 0.34155,-2.43393 0.98755,-3.43494c2.46703,-3.82286 6.90249,-6.65256 10.68378,-8.93275c1.35327,-0.81605 3.44383,-2.47349 4.76207,-2.69766c1.78996,-0.30439 3.61612,0.51131 5.42997,0.43019c1.81385,-0.08112 3.5599,-1.05658 5.36989,-0.91318c4.5526,0.36068 14.0464,7.15939 16.42237,10.20521c3.3908,4.34676 3.86597,10.41816 6.85121,15.05283c0.29171,0.45288 0.95988,-0.52416 1.33501,-0.91078c1.29798,-1.33774 2.11519,-3.18158 3.65495,-4.23204c1.20373,-0.82122 2.86886,-0.59517 4.22013,-1.14057c0.75585,-0.30508 1.23312,-1.16543 2.01998,-1.3781c7.72227,-2.0871 15.77063,-1.46341 22.66614,2.51867c4.08443,2.35871 7.61368,8.58093 9.15929,12.88073c0.81779,2.27503 6.08147,16.33665 8.39382,24.23446c3.08791,10.5467 5.23561,21.40948 9.20286,31.65784c0.42536,1.0988 2.26206,0.66602 3.41105,0.92695c2.98694,0.67831 6.73011,0.21563 8.86739,2.4097c1.84148,1.89042 6.35684,5.87225 7.41003,8.60396c4.69221,12.17042 3.83664,24.65944 7.43476,37.47947c0.02001,0.07129 2.79862,-0.01009 3.44056,0.04632c1.82589,0.16045 3.93341,1.81575 5.44359,0.77703c0.1215,-0.08357 -0.20855,-3.30647 -0.2165,-3.92272c-0.03181,-2.46619 -0.40118,-4.94339 -0.15576,-7.39754c0.14289,-1.42889 1.17747,-3.15106 1.16079,-4.57062c-0.27672,-23.55983 -0.67423,-47.11809 -1.00251,-70.67726c-0.25076,-17.99588 -5.74566,-50.66262 15.96186,-60.87319c2.06324,-0.97049 4.56521,-0.15236 6.82513,-0.45501c2.25992,-0.30264 4.45846,-1.75025 6.70436,-1.35683c15.93816,2.79191 18.12362,13.96181 23.95271,26.11371c1.39257,2.9031 7.40111,4.26436 9.07582,7.29059c3.71391,6.7111 4.1463,10.0376 6.25905,17.35782c1.63968,5.68115 4.51379,13.35772 6.35072,20.03846c1.13862,4.14106 0.75797,9.02425 3.3653,12.43697c1.06089,1.38859 3.31135,-1.66284 5.04336,-1.43091c4.51012,0.60395 9.4983,1.42167 12.91232,4.43006c9.40454,8.28717 14.6463,22.04356 18.33614,33.40799c5.91434,18.21571 7.60614,38.37441 17.66354,54.67288c3.24309,5.25557 12.15618,2.19468 18.20286,3.45022c5.59998,1.16278 9.15399,4.8056 14.34557,6.98582c0.27987,0.11753 2.45556,-4.14921 3.04088,-4.56132c2.55938,-1.80201 5.15519,-3.646 8.05227,-4.83117c1.8094,-0.74021 3.85401,-0.70912 5.80474,-0.83761c1.04152,-0.0686 3.02058,1.47643 3.10087,0.43574c1.20488,-15.61752 -8.66111,-57.58615 17.03278,-64.53045c25.00283,-6.75752 40.20729,16.73119 52.96722,33.90165c2.34253,3.15224 4.03791,7.8515 6.71871,10.00868c0.83249,0.66989 1.06885,-1.9778 1.99663,-2.50791c1.60902,-0.91936 3.59634,-0.94559 5.30463,-1.66386c1.1164,-0.4694 1.95644,-1.51256 3.112,-1.87501c5.44788,-1.70879 15.84804,-0.64326 20.46653,2.38354c4.86707,3.18972 8.73817,9.27553 10.4396,14.78653c1.43173,4.63742 2.6969,9.3248 4,14c0.11769,0.42224 -0.14607,1.42842 0.2689,1.28722c5.5697,-1.89521 11.29428,-1.98738 17.2048,-0.17741c0.79086,0.24219 4.50817,1.4134 5.75556,2.22353c0.68749,0.4465 1.27662,1.91098 1.96946,1.47284c2.15939,-1.36558 3.88184,-3.62247 6.26319,-4.81314c6.62332,-3.31166 17.22309,-4.53016 24.40625,-2.73437c3.59515,0.89879 7.74224,1.09344 10.54688,3.51563c16.09451,13.8998 10.62449,35.15271 10.54688,55.09375c-0.03592,9.22814 -2.86688,26.96858 -3.12919,29.54734c-2.35434,23.14579 -4.24952,46.31973 -6.78548,69.40672c-0.19591,1.78358 2.83563,2.23484 4.00842,3.59281c2.88979,3.34608 3.69573,9.95318 3.90625,14.45313c0.9895,21.15101 3.89649,42.49254 6.74874,63.46447c2.08487,15.32957 1.24623,31.22624 1.25126,46.53553c0.00965,29.33333 0.06309,58.66673 0,88c-0.0092,4.27701 -3.12674,17.19619 -5.90625,20.45313c-1.21172,1.41985 -6.11956,6.39096 -8.59375,7.42188c-2.49794,1.04081 -7.87676,2.0346 -9.39618,3.37652c-3.54112,3.12743 -4.68853,5.00863 -7.89829,8.75309c-2.04683,2.3878 -5.50325,4.12333 -7.31437,6.49808c-0.6178,0.81006 -0.31567,2.05277 -0.79742,2.95044c-3.05864,5.69936 -13.55427,10.29946 -19.59989,10.87733c-10.11159,0.96652 -17.79495,-4.30256 -24.58761,-10.87733c-1.68853,-1.63437 -2.44784,-7.90434 -2.93587,-8.62138c-0.47154,-0.69282 -1.65724,0.72477 -2.46424,0.49871c-3.02782,-0.84815 -5.77464,-2.49432 -8.70748,-3.62811c-0.72522,-0.28036 -1.66622,-0.09707 -2.25179,-0.60859c-2.13886,-1.86836 -2.98695,-5.34423 -5.62306,-6.40084c-7.83502,-3.14045 -17.67369,-3.69458 -25.87967,-5.00738c-11.09936,-1.77568 -22.48862,-4.14978 -33.73631,-4.71971c-7.80334,-0.3954 -0.66878,14.72595 -0.41051,17.77078c0.97858,11.53681 -1.22734,20.14837 -10.44421,28.35714c-2.29628,2.04512 -5.91267,1.70038 -8.90538,2.40686c-2.99271,0.70648 -6.07314,2.63213 -9.0416,1.82985c-3.03546,-0.82039 -5.77464,-2.49432 -8.70748,-3.62811c-0.72522,-0.28036 -1.66622,-0.09707 -2.25179,-0.60859c-7.00495,-6.11906 -11.70264,-15.08335 -11.70264,-24.49129c0,-1.68281 0.28014,-3.36781 0.15576,-5.04601c-0.18645,-2.51586 -0.651,-4.78348 -0.88739,-7.18622c-0.37276,-3.78893 2.44953,-9.95 -1.08288,-11.37023c-4.05039,-1.62848 -21.60134,-0.37307 -31.02973,0.25549z" data-paper-data="{&quot;origPos&quot;:null}" fill="#86ceff" stroke="none" stroke-width="0.5" stroke-linecap="butt"/><path d="M-2.06367,188.45773l486.12734,2.06755" data-paper-data="{&quot;origPos&quot;:null,&quot;origRot&quot;:0}" fill="none" stroke="#000000" stroke-width="2" stroke-linecap="round"/><path d="M141.42857,97.00001c0,18.22539 -14.42283,33 -32.21429,33c-17.79146,0 -32.21429,-14.77461 -32.21429,-33c0,-18.22539 14.42283,-33 32.21429,-33c17.79146,0 32.21429,14.77461 32.21429,33z" data-paper-data="{&quot;origPos&quot;:null}" fill="#9966ff" stroke="none" stroke-width="0" stroke-linecap="butt"/><path d="M366,101.50002c0,19.05382 -15.44618,34.5 -34.5,34.5c-19.05382,0 -34.5,-15.44618 -34.5,-34.5c0,-19.05382 15.44618,-34.5 34.5,-34.5c19.05382,0 34.5,15.44618 34.5,34.5z" data-paper-data="{&quot;origPos&quot;:null}" fill="#ff66f8" stroke="none" stroke-width="0" stroke-linecap="butt"/><path d="M123,279.06453c0,12.11463 -9.40202,21.93548 -21,21.93548c-11.59798,0 -21,-9.82085 -21,-21.93548c0,-12.11463 9.40202,-21.93548 21,-21.93548c11.59798,0 21,9.82085 21,21.93548z" data-paper-data="{&quot;origPos&quot;:null}" fill="#87cfff" stroke="#000000" stroke-width="0.5" stroke-linecap="butt"/><path d="M223,279.06451c0,12.11464 -9.40202,21.93549 -21,21.93549c-11.59798,0 -21,-9.82085 -21,-21.93549c0,-12.11464 9.40202,-21.93548 21,-21.93548c11.59798,0 21,9.82085 21,21.93548z" data-paper-data="{&quot;origPos&quot;:null}" fill="#87cfff" stroke="#000000" stroke-width="0.5" stroke-linecap="butt"/><text transform="translate(90,285) scale(0.5,0.5)" font-size="40" xml:space="preserve" data-paper-data="{&quot;origPos&quot;:null}" fill="#9966ff" fill-rule="nonzero" stroke="none" stroke-width="1" stroke-linecap="butt" stroke-linejoin="miter" stroke-miterlimit="10" stroke-dasharray="" stroke-dashoffset="0" font-family="Sans Serif" font-weight="normal" text-anchor="start" style="mix-blend-mode: normal"><tspan x="0" dy="0">P0</tspan></text><text transform="translate(190,285) scale(0.5,0.5)" font-size="40" xml:space="preserve" data-paper-data="{&quot;origPos&quot;:null}" fill="#ff66f8" fill-rule="nonzero" stroke="none" stroke-width="1" stroke-linecap="butt" stroke-linejoin="miter" stroke-miterlimit="10" stroke-dasharray="" stroke-dashoffset="0" font-family="Sans Serif" font-weight="normal" text-anchor="start" style="mix-blend-mode: normal"><tspan x="0" dy="0">P1</tspan></text><text transform="translate(68,230) scale(0.54033,0.5)" font-size="40" xml:space="preserve" data-paper-data="{&quot;origPos&quot;:null}" fill="#000000" fill-rule="nonzero" stroke="none" stroke-width="1" stroke-linecap="butt" stroke-linejoin="miter" stroke-miterlimit="10" stroke-dasharray="" stroke-dashoffset="0" font-family="Sans Serif" font-weight="normal" text-anchor="start" style="mix-blend-mode: normal"><tspan x="0" dy="0">b</tspan></text><text transform="translate(222,229) scale(0.54033,0.5)" font-size="40" xml:space="preserve" data-paper-data="{&quot;origPos&quot;:null}" fill="#000000" fill-rule="nonzero" stroke="none" stroke-width="1" stroke-linecap="butt" stroke-linejoin="miter" stroke-miterlimit="10" stroke-dasharray="" stroke-dashoffset="0" font-family="Sans Serif" font-weight="normal" text-anchor="start" style="mix-blend-mode: normal"><tspan x="0" dy="0">b</tspan></text><text transform="translate(155,252) scale(0.54033,0.5)" font-size="40" xml:space="preserve" data-paper-data="{&quot;origPos&quot;:null}" fill="#000000" fill-rule="nonzero" stroke="none" stroke-width="1" stroke-linecap="butt" stroke-linejoin="miter" stroke-miterlimit="10" stroke-dasharray="" stroke-dashoffset="0" font-family="Sans Serif" font-weight="normal" text-anchor="start" style="mix-blend-mode: normal"><tspan x="0" dy="0">a</tspan></text><text transform="translate(155,317) scale(0.54033,0.5)" font-size="40" xml:space="preserve" data-paper-data="{&quot;origPos&quot;:null}" fill="#000000" fill-rule="nonzero" stroke="none" stroke-width="1" stroke-linecap="butt" stroke-linejoin="miter" stroke-miterlimit="10" stroke-dasharray="" stroke-dashoffset="0" font-family="Sans Serif" font-weight="normal" text-anchor="start" style="mix-blend-mode: normal"><tspan x="0" dy="0">a</tspan></text><path d="M129,279.3318c0,15.57596 -12.08831,28.20276 -27,28.20276c-14.91169,0 -27,-12.6268 -27,-28.20276c0,-15.57596 12.08831,-28.20276 27,-28.20276c14.91169,0 27,12.6268 27,28.20276z" data-paper-data="{&quot;origPos&quot;:null}" fill="none" stroke="#000000" stroke-width="0.5" stroke-linecap="butt"/></g></g></svg>